<?xml version="1.0" encoding="utf-8"?>
<!-- Generator: Adobe Illustrator 26.1.0, SVG Export Plug-In . SVG Version: 6.00 Build 0)  -->
<svg version="1.1" id="Layer_1" xmlns="http://www.w3.org/2000/svg" xmlns:xlink="http://www.w3.org/1999/xlink" x="0px" y="0px"
	 viewBox="0 0 80 80" style="enable-background:new 0 0 80 80;" xml:space="preserve">
<style type="text/css">
	.st0{fill:#C59B27;}
</style>
<g>
	<g>
		<path class="st0" d="M65.1,2.2c1,0.3,1.9,0.6,2.5,1.5c1.3-0.4,2.5-0.9,3.8-1.3c0.7-0.2,1.2,0.1,1.4,0.7c0.2,0.6-0.1,1.1-0.7,1.4
			c-0.2,0.1-0.4,0.2-0.6,0.2c-0.9,0.3-1.8,0.6-2.7,0.9c-0.3,0.1-0.5,0.2-0.5,0.6c0,0.8-0.4,1.4-0.9,2c-0.3,0.3-0.3,0.5-0.1,0.8
			c2.4,5.6,4.9,11.2,7.3,16.8c0.1,0.3,0.3,0.5,0.7,0.5c0.5,0,1,0,1.5,0c0.6,0,1,0.4,1,1c0.3,4-0.9,7.7-5,9.9c-1.3,0.7-2.7,1-4.2,1
			c-2.5,0-5,0-7.5,0c-5.1,0-9-3.8-9.3-8.8c0-0.6,0-1.1,0-1.7c0-0.9,0.4-1.4,1.3-1.3c1.5,0.2,2-0.5,2.5-1.7
			c2.1-5.1,4.4-10.3,6.6-15.4c0.1-0.3,0.4-0.6,0-1c-0.3-0.4-0.6-0.1-0.9,0c-4.4,1.5-8.9,3-13.3,4.5c-0.1,0-0.3,0.1-0.5,0.2
			c0.2,1.1,0.2,2.3-0.1,3.4c-0.4,1.4-1.1,2.6-2.2,3.5c-0.3,0.3-0.5,0.6-0.5,1.1c0,5.4,0,10.8,0,16.1c0,0.2,0,0.5,0,0.7
			c0,0.6-0.4,1-1,1c-0.6,0-1-0.3-1.1-0.9c0-0.3,0-0.5,0-0.8c0-4.9,0-9.8,0-14.6c0-0.3,0-0.5,0-0.9c-0.9,0.2-1.7,0.4-2.6,0.4
			c-0.8,0-1.6-0.2-2.5-0.4c0,12.8,0,25.5,0,38.3c1.7,0,3.3,0,5,0c0.1-0.3,0.1-0.5,0.1-0.8c0-5.1,0-10.2,0-15.2c0-0.2,0-0.3,0-0.5
			c0-0.9,0.4-1.4,1.2-1.4c0.7,0,1.1,0.5,1.1,1.4c0,4.2,0,8.5,0,12.7c0,1.3,0,2.6,0,3.9c2.8-0.1,5.2,0.6,7.2,2.6c2,1.9,2.9,4.3,2.8,7
			c2,0.5,2.7,1.4,2.7,3.5c0,0.6,0,1.2,0,1.8c-0.1,1.9-1.2,3-3.1,3.1c-0.6,0-1.2,0-1.8,0c-3.1,0-6.2,0-9.2,0c-0.1,0-0.3,0-0.4,0
			c-0.9,0-1.5-0.4-1.5-1.1c0-0.7,0.5-1.1,1.4-1.1c3.7,0,7.3,0,11,0c1.3,0,1.4-0.1,1.4-1.4c0-0.5,0-1,0-1.6c0-0.8-0.2-1-1-1
			c-2.8,0-5.7,0-8.5,0c-6.7,0-13.3,0-20,0c-1,0-1.2,0.1-1.2,1.2c0,0.6,0,1.1,0,1.7c0,0.9,0.2,1,1.1,1c3.1,0,6.2,0,9.2,0
			c0.7,0,1.5,0,2.2,0c0.8,0,1.3,0.4,1.3,1.1c0,0.6-0.5,1.1-1.3,1.1c-3.9,0-7.9,0-11.8,0c-1.8,0-2.9-1.2-2.9-3c0-0.8,0-1.6,0-2.4
			c0.1-1.7,0.9-2.6,2.7-3c-0.1-2.7,0.8-5.1,2.8-7c2-1.9,4.4-2.7,7.1-2.6c0.2-0.3,0.1-0.6,0.1-0.8c0-12.7,0-25.4,0-38
			c0-0.5-0.1-0.9-0.5-1.2c-0.6-0.5-1.1-1.2-1.6-2c-1.6,0.5-3.2,1.1-4.8,1.6c-3,1-6,2-9,3c-0.4,0.1-0.7,0.3-0.7,0.8
			c0,0.7-0.3,1.3-0.8,1.8c-0.3,0.3-0.3,0.5-0.1,0.9c2.4,5.6,4.8,11.1,7.2,16.7c0.2,0.4,0.4,0.5,0.8,0.5c0.4,0,0.9,0,1.3,0
			c0.7,0.1,1.1,0.4,1.2,1.1c0.7,5-2.5,9.5-7.4,10.6c-0.3,0.1-0.6,0.1-0.9,0.1c-3,0.1-6.1,0.2-9.1,0c-4.3-0.3-7.5-3.1-8.5-7.4
			c0-0.1,0-0.3-0.2-0.4c0-1.1,0-2.3,0-3.4c0.4-0.5,1-0.8,1.7-0.7c0.3,0,0.5,0,0.8,0c0.4,0,0.6-0.1,0.8-0.5
			c2.4-5.6,4.8-11.2,7.3-16.8c0.1-0.3,0.2-0.5,0-0.7c-0.3-0.3-0.5-0.3-0.8-0.2c-1,0.4-2.1,0.7-3.1,1.1c-0.8,0.2-1.3,0-1.6-0.6
			c-0.2-0.6,0.1-1.2,0.9-1.5c1-0.4,2-0.7,3.1-1c0.4-0.1,0.5-0.3,0.6-0.7c0.2-1.4,1-2.4,2.3-2.9c1.4-0.5,2.6-0.2,3.6,0.8
			c0.3,0.3,0.6,0.4,1,0.2c2.9-1,5.8-2,8.7-2.9c1.7-0.6,3.5-1.2,5.2-1.8c-0.7-4,1.7-7.2,4.7-8.5c1.4-0.6,2.9-0.7,4.4-0.4
			c2.4,0.5,4.1,1.9,5.4,4c4.7-1.6,9.4-3.2,14-4.7c0.4-0.1,0.4-0.3,0.5-0.6c0.3-1.6,1.2-2.6,2.7-3c0.1,0,0.3,0,0.4-0.2
			C64.7,2.2,64.9,2.2,65.1,2.2z M52.5,69.5c0.2-3.9-2.6-7.2-6.4-7.3c-4-0.1-7.9-0.1-11.9-0.1c-2.3,0-4.1,1-5.5,2.8
			c-1,1.4-1.5,2.9-1.4,4.6C35.8,69.5,44.2,69.5,52.5,69.5z M25.8,45.3c-7.2,0-14.3,0-21.5,0c-0.1,0.6,0,1.2,0.1,1.7
			c0.4,2.8,3.2,5.4,6,5.6c2.8,0.2,5.6,0.1,8.4,0.1c0.8,0,1.7-0.1,2.5-0.4C24.1,51.4,26.2,48.2,25.8,45.3z M54,28.5
			c0.1,0.7,0.1,1.4,0.3,2c0.9,3.3,3.5,5.3,7,5.4c2.3,0,4.6,0,7,0c1,0,1.9-0.1,2.8-0.4c2.8-0.9,4.9-4.1,4.5-7
			C68.4,28.5,61.3,28.5,54,28.5z M72.4,26.2c0-0.1-0.1-0.3-0.1-0.4c-2.3-5.3-4.6-10.7-6.9-16c-0.1-0.2-0.1-0.5-0.5-0.5
			c-0.3,0-0.3,0.3-0.4,0.5c-2.3,5.2-4.5,10.5-6.8,15.7c-0.1,0.2-0.2,0.4-0.2,0.6C62.4,26.2,67.4,26.2,72.4,26.2z M22.6,43
			c0-0.2,0-0.3-0.1-0.3c-2.3-5.4-4.6-10.7-7-16.1c-0.1-0.2-0.1-0.4-0.4-0.4c-0.3,0-0.3,0.3-0.4,0.4c-1.4,3.2-2.8,6.4-4.2,9.6
			c-1,2.3-2,4.5-2.9,6.8C12.6,43,17.5,43,22.6,43z M39.9,19.7c3,0.1,5.5-2.4,5.6-5.4c0-3-2.4-5.4-5.4-5.5c-2.9-0.1-5.5,2.4-5.5,5.4
			C34.5,17.1,36.9,19.6,39.9,19.7z M15.1,24c0.7,0,1.3-0.6,1.3-1.3c0-0.7-0.6-1.3-1.3-1.4c-0.7,0-1.4,0.6-1.4,1.4
			C13.8,23.4,14.4,24,15.1,24z M66.2,5.8c0-0.7-0.6-1.3-1.3-1.3c-0.7,0-1.4,0.6-1.4,1.3c0,0.7,0.6,1.3,1.3,1.3
			C65.6,7.2,66.2,6.6,66.2,5.8z"/>
		<path class="st0" d="M40,10.7c1.9,0,3.5,1.6,3.5,3.5c0,1.9-1.6,3.5-3.5,3.5c-1.9,0-3.5-1.6-3.5-3.5C36.5,12.3,38.1,10.7,40,10.7z
			 M41.3,14.2c0-0.7-0.6-1.2-1.3-1.2c-0.7,0-1.3,0.6-1.3,1.3c0,0.7,0.6,1.3,1.3,1.3C40.7,15.5,41.3,14.9,41.3,14.2z"/>
	</g>
</g>
</svg>
