<?xml version="1.0" encoding="utf-8"?>
<!-- Generator: Adobe Illustrator 26.1.0, SVG Export Plug-In . SVG Version: 6.00 Build 0)  -->
<svg version="1.1" id="Layer_1" xmlns="http://www.w3.org/2000/svg" xmlns:xlink="http://www.w3.org/1999/xlink" x="0px" y="0px"
	 viewBox="0 0 80 80" style="enable-background:new 0 0 80 80;" xml:space="preserve">
<style type="text/css">
	.st0{fill:#C59B27;}
</style>
<g>
	<g>
		<path class="st0" d="M76.6,12.6c-0.3,0.6-0.3,1.2-0.5,1.9c-1,3.5-2.7,6.6-5.3,9.1c-3.1,3.1-6.3,6.3-9.4,9.4
			c-0.3,0.3-0.4,0.6-0.4,1.1c0.1,1.3,0.3,2.6,0.4,3.9c0.9-0.2,1.7-0.2,2.5,0c3.1,0.9,4.2,4.8,2,7.2c-1,1.1-2.1,2.1-3.2,3.2
			c-0.2,0.2-0.3,0.4-0.3,0.7c0.1,1.4,0.3,2.7,0.4,4.2c1-0.2,2-0.3,2.9,0.1c2.9,1.1,3.7,4.8,1.6,7c-1,1.1-2.1,2.1-3.2,3.2
			c-0.3,0.3-0.4,0.5-0.3,0.9c0.2,1.7,0.3,3.3,0.5,5c0.1,0.7-0.2,1.2-0.6,1.6c-2,1.9-3.9,3.9-5.9,5.9c-1,1-2,0.9-2.7-0.4
			c-4.1-7.9-8.3-15.9-12.4-23.8c-0.1-0.2-0.2-0.4-0.3-0.6c-0.2,0-0.3,0.2-0.5,0.3c-2.7,2.8-5.5,5.4-8.8,7.4
			c-0.4,0.2-0.3,0.5-0.3,0.9c-0.1,3.8-0.1,7.5-0.2,11.3c0,0.7-0.2,1.2-0.7,1.7c-1,0.9-1.9,1.9-2.9,2.9c-1,1-2.1,0.7-2.6-0.6
			c-1.2-3.5-2.3-6.9-3.5-10.4c-0.1-0.2-0.2-0.5-0.3-0.8c-1.8,0.5-3.6,0.9-5.3,1.3c-1.3,0.2-2.1-0.6-1.9-1.8c0.3-1.8,0.7-3.6,1.3-5.4
			c-0.6-0.2-1.1-0.4-1.7-0.6C12,57.1,8.9,56,5.7,55c-1.5-0.5-1.7-1.6-0.7-2.7c1-1,1.9-1.9,2.9-2.9c0.4-0.4,0.9-0.6,1.5-0.6
			c3.8-0.1,7.6-0.1,11.4-0.2c0.3,0,0.6,0,0.8-0.3c2-3.2,4.5-6,7.2-8.5c0.2-0.2,0.4-0.3,0.8-0.5c-2.3-1.2-4.4-2.3-6.4-3.4
			c-0.4-0.2-0.8-0.5-0.9-0.9c-0.2-0.6-0.1-1.1,0.4-1.5c0.5-0.4,1-0.5,1.6-0.2c1,0.5,2,1,3,1.5c1.4,0.8,2.9,1.5,4.3,2.2
			c4.6-4.6,9.1-9.1,13.7-13.7c-1.2-0.1-2.4-0.2-3.6-0.4c-5.8-0.6-11.7-1.1-17.5-1.7c-3.8-0.4-7.6-0.7-11.4-1.1
			c-0.3,0-0.5-0.1-0.7,0.2c-1.4,1.4-2.8,2.8-4.3,4.3c1.6,0.8,3.1,1.6,4.6,2.4c0.6,0.3,1.2,0.6,1.8,1c0.8,0.4,1,1.2,0.7,1.9
			c-0.4,0.7-1.2,1-2,0.6c-2.7-1.4-5.4-2.8-8.1-4.2c-1-0.5-1.1-1.5-0.4-2.3c2.1-2.1,4.2-4.2,6.3-6.3c0.4-0.4,0.9-0.5,1.4-0.4
			c1.7,0.2,3.3,0.3,5,0.5c0.4,0,0.7,0,1-0.3c0.9-1,1.9-1.9,2.9-2.9c1.5-1.5,3.6-1.9,5.3-1c1.8,1,2.6,2.8,2.2,5c0,0,0,0.1,0,0.2
			c1.4,0.1,2.8,0.3,4.2,0.4c0.3,0,0.4-0.2,0.6-0.3c1-1,2-2,3-3c1.3-1.3,2.9-1.7,4.6-1c1.7,0.6,2.6,1.9,2.8,3.7
			c0.1,0.5-0.1,1-0.1,1.6c0.8,0.1,1.6,0.1,2.3,0.3c1.6,0.4,2.7-0.2,3.9-1.4c2.6-2.8,5.3-5.4,8-8.1c3.3-3.4,7.2-5.4,11.9-6
			c0.1,0,0.2,0,0.3-0.1c1.3,0,2.7,0,4,0C74,5,74.2,4.9,74.4,4.9c1,0,1.9,0.4,2.2,1.4C76.6,8.4,76.6,10.5,76.6,12.6z M18.7,62.7
			c0.2,0,0.3,0,0.4,0c7-1.7,13.3-4.9,18.4-10c10.5-10.4,21-20.9,31.5-31.4c3.5-3.5,5.1-7.9,4.9-12.9c0-0.6-0.2-0.8-0.8-0.8
			c-4.2-0.2-7.9,1-11.3,3.5c-1.7,1.3-3.2,3-4.7,4.5c-9.5,9.5-19,18.9-28.4,28.5C23.5,49.3,20.3,55.5,18.7,62.7z M57,73.7
			c1-1,1.9-2.1,2.9-2.9c1.2-1,1.8-2.1,1.3-3.7c0-0.1,0-0.2,0-0.3c-0.4-4.2-0.8-8.4-1.2-12.6c-0.5-4.8-0.9-9.5-1.4-14.3
			c-0.1-1.3-0.2-2.6-0.4-3.9c-0.2,0.2-0.2,0.2-0.3,0.3c-4.4,4.4-8.7,8.7-13.1,13.1c-0.4,0.4-0.2,0.6-0.1,1
			c2.7,5.2,5.4,10.4,8.2,15.6C54.3,68.6,55.6,71.1,57,73.7z M8.6,52.9c3,1,6.1,2,9.2,3.1c0.6-1.6,1.3-3,2.1-4.6c-0.3,0-0.6,0-0.8,0
			c-2.6,0-5.2,0.1-7.7,0.1C10.1,51.6,9.2,51.8,8.6,52.9z M25.4,63.7c1.1,3.1,2.1,6.1,3.1,9.2c1.3-1.2,1.3-1.2,1.3-2.8
			c0-0.9,0.1-1.8,0.1-2.8c0-1.9,0-3.8,0-5.7C28.5,62.4,27,63.1,25.4,63.7z M21.5,18c1.2,0.1,2.3,0.2,3.4,0.3c0.3,0,0.5-0.1,0.7-0.4
			c0.3-0.6,0.2-1.4-0.4-1.8c-0.5-0.5-1.3-0.6-1.9-0.1C22.7,16.7,22.1,17.4,21.5,18z M63.4,60c0.7-0.6,1.3-1.2,1.9-1.8
			c0.5-0.5,0.4-1.4-0.1-1.9c-0.4-0.5-1.2-0.7-1.8-0.4c-0.2,0.1-0.4,0.2-0.4,0.5C63.2,57.6,63.3,58.8,63.4,60z M36.5,19.5
			c1.2,0.1,2.2,0.2,3.3,0.3c0.8,0.1,1.2-0.3,1.1-1.1c-0.1-1.1-1.4-1.8-2.3-1.1C37.8,18.1,37.2,18.8,36.5,19.5z M62,45
			c0.7-0.7,1.3-1.2,1.8-1.8c0.5-0.6,0.5-1.3,0.1-1.8c-0.4-0.6-1-0.8-1.7-0.6c-0.4,0.1-0.6,0.3-0.6,0.8C61.8,42.6,61.9,43.7,62,45z"
			/>
		<path class="st0" d="M20,31.8c0,0.8-0.6,1.4-1.4,1.4c-0.8,0-1.5-0.6-1.5-1.4c0-0.8,0.7-1.4,1.5-1.4C19.4,30.4,20,31,20,31.8z"/>
		<path class="st0" d="M50.3,32.6c0,0.5-0.2,0.8-0.5,1.1c-3.7,3.7-7.4,7.4-11.2,11.1c-0.7,0.7-1.5,0.7-2.1,0.1
			c-0.6-0.6-0.6-1.4,0.1-2.1c3.7-3.7,7.5-7.5,11.2-11.2c0.5-0.5,1-0.6,1.6-0.4C49.9,31.6,50.2,32,50.3,32.6z"/>
		<path class="st0" d="M52.9,27.2c0.8,0,1.4,0.7,1.4,1.4c0,0.8-0.7,1.4-1.5,1.4c-0.8,0-1.4-0.7-1.4-1.4
			C51.4,27.8,52.1,27.2,52.9,27.2z"/>
	</g>
</g>
</svg>
