<?xml version="1.0" encoding="utf-8"?>
<!-- Generator: Adobe Illustrator 26.1.0, SVG Export Plug-In . SVG Version: 6.00 Build 0)  -->
<svg version="1.1" id="Layer_1" xmlns="http://www.w3.org/2000/svg" xmlns:xlink="http://www.w3.org/1999/xlink" x="0px" y="0px"
	 viewBox="0 0 80 80" style="enable-background:new 0 0 80 80;" xml:space="preserve">
<style type="text/css">
	.st0{fill:#C59B27;}
</style>
<g>
	<g>
		<path class="st0" d="M75.5,23.8c0,1.5,0,2.9,0,4.4c0,0-0.1,0-0.1,0.1c-0.6,2.1-2.1,3-4.2,3.2c-0.4,0-0.5,0.2-0.7,0.5
			c-1,1.4-2,2.8-3,4.3c-0.2,0.3-0.3,0.5-0.3,0.9c0,8.1,0,16.3,0,24.4c0,0.3,0.1,0.6,0.3,0.8c0.9,1.2,1.8,2.3,2.5,3.6
			c0.6,0.9,1.2,1.3,2.3,1.2c1.5-0.2,2.6,0.4,3.2,1.8c0,1.6,0,3.1,0,4.7c-0.6,1.4-1.7,1.8-3.2,1.8c-21.4,0-42.9,0-64.3,0
			c-0.2,0-0.5,0-0.7,0C6,75.2,5,74.2,5,72.9c0-1.2,0-2.3,0-3.5c0-1.3,1-2.3,2.4-2.4c0.6,0,1.1,0,1.7,0c0.4,0,0.7-0.1,0.9-0.5
			c1-1.4,2-2.9,3-4.3c0.2-0.3,0.3-0.5,0.3-0.9c0-8.1,0-16.2,0-24.4c0-0.3-0.1-0.6-0.3-0.9c-1-1.4-2-2.8-3-4.3
			c-0.2-0.3-0.5-0.4-0.8-0.4C6.8,31.4,5,29.6,5,27.3c0-0.9,0-1.8,0-2.7c0-0.7,0.3-1.1,0.9-1.5c4.7-2.6,9.4-5.2,14.1-7.8
			c0.2-0.1,0.5-0.3,0.7-0.4c0.5-0.2,0.9,0,1.2,0.4c0.3,0.5,0.2,0.9-0.2,1.3c-0.1,0.1-0.3,0.2-0.5,0.3c-2.5,1.4-5,2.8-7.5,4.2
			c-1.1,0.6-2.2,1.2-3.5,1.9c20.1,0,40.1,0,60.1,0C70.1,23,70,23,69.9,22.9c-9.3-5.2-18.7-10.4-28-15.5c-1.1-0.6-2.2-0.6-3.4,0
			C34.3,9.7,30.2,12,26,14.3c-0.8,0.4-1.3,0.3-1.7-0.2C24,13.5,24.2,13,25,12.5c1.1-0.6,2.3-1.3,3.4-1.9c3.7-1.9,7.1-4.3,11-5.8
			c0.5,0,1,0,1.5,0c0.9,0.3,1.7,0.6,2.5,1c10.3,5.7,20.5,11.4,30.8,17.1C74.6,23.2,75.1,23.4,75.5,23.8z M58.9,37.3
			c0,3.8,0,7.5,0,11.3c0,0.3,0,0.6-0.1,0.9c-0.2,0.5-0.6,0.7-1.1,0.6c-0.5-0.1-0.8-0.4-0.9-0.9c0-0.2,0-0.5,0-0.7
			c0-3.8,0-7.6,0-11.4c0-0.4-0.1-0.7-0.3-1c-1-1.4-2-2.8-3-4.3c-0.2-0.3-0.4-0.4-0.8-0.4c-8.3,0-16.7,0-25,0c-0.4,0-0.6,0.1-0.8,0.4
			c-1,1.4-2,2.8-3,4.3c-0.2,0.3-0.3,0.6-0.3,0.9c0,8.1,0,16.2,0,24.3c0,0.3,0.1,0.6,0.3,0.9c1,1.4,2.1,2.9,3.1,4.3
			c0.2,0.3,0.5,0.4,0.8,0.4c8.3,0,16.6,0,24.9,0c0.4,0,0.7-0.2,0.9-0.5c1-1.4,1.9-2.7,2.9-4.1c0.3-0.4,0.4-0.8,0.4-1.3
			c0-2.4,0-4.8,0-7.2c0-0.5,0.2-0.8,0.6-1.1c0.4-0.2,0.8-0.1,1.1,0.2c0.3,0.3,0.4,0.7,0.4,1.1c0,2.1,0,4.2,0,6.3
			c0,0.2-0.1,0.5,0.1,0.7c2,0,4.1,0,6.1,0c0-8,0-15.9,0-23.9C63,37.3,61,37.3,58.9,37.3z M40.2,73.2c9.1,0,18.3,0,27.4,0
			c1.7,0,3.4,0,5.2,0c0.5,0,0.7-0.2,0.7-0.7c0-0.8,0-1.6,0-2.4c0-1.1,0-1.1-1-1.1c-21.4,0-42.8,0-64.3,0c-0.1,0-0.3,0-0.4,0
			c-0.5,0-0.7,0.1-0.6,0.6c0,0.8,0,1.7,0,2.5c0,1,0,1,0.9,1C18.7,73.2,29.4,73.2,40.2,73.2z M7,25.3c0,0.8,0,1.5,0,2.2
			c0.1,1.2,1,1.9,2.5,1.9c20.4,0,40.8,0,61.3,0c0.3,0,0.6,0,0.9-0.1c0.9-0.2,1.6-0.8,1.6-1.7c0.1-0.8,0-1.5,0-2.3
			C51.2,25.3,29.2,25.3,7,25.3z M21.5,61.2c0-8,0-15.9,0-23.9c-2.1,0-4.1,0-6.2,0c0,8,0,15.9,0,23.9C17.4,61.2,19.4,61.2,21.5,61.2z
			 M12.2,67c4.2,0,8.3,0,12.5,0c-0.8-1.2-1.6-2.3-2.4-3.4c-0.2-0.2-0.3-0.3-0.6-0.3c-2.2,0-4.3,0-6.5,0c-0.2,0-0.4,0-0.6,0.3
			C13.8,64.7,13,65.8,12.2,67z M68.3,67c-0.9-1.2-1.6-2.3-2.4-3.4c-0.2-0.2-0.4-0.3-0.6-0.3c-2.2,0-4.3,0-6.5,0
			c-0.2,0-0.4,0-0.5,0.2c-0.8,1.2-1.6,2.3-2.5,3.5C60,67,64.1,67,68.3,67z M12.2,31.5c0.9,1.2,1.7,2.3,2.4,3.5
			c0.2,0.3,0.4,0.2,0.7,0.2c2.1,0,4.2,0,6.3,0c0.4,0,0.6-0.1,0.8-0.4c0.7-1,1.4-1.9,2.1-2.9c0.1-0.1,0.3-0.2,0.1-0.4
			C20.4,31.5,16.4,31.5,12.2,31.5z M55.8,31.5c0.9,1.2,1.7,2.3,2.4,3.4c0.2,0.3,0.4,0.3,0.7,0.3c1.4,0,2.7,0,4.1,0
			c0.9,0,1.9,0.3,2.6-0.1c0.7-0.4,1.1-1.3,1.6-2c0.4-0.5,0.7-1,1.1-1.6c-4.1,0-8.1,0-12.1,0C56.1,31.5,56,31.5,55.8,31.5z"/>
		<path class="st0" d="M40.2,20.6c-2.6,0-4.8-2.1-4.8-4.7c0-2.6,2.1-4.7,4.7-4.7c2.6,0,4.8,2.1,4.8,4.8
			C44.9,18.4,42.8,20.5,40.2,20.6z M40.2,18.5c1.5,0,2.7-1.2,2.7-2.7c0-1.5-1.2-2.7-2.7-2.7c-1.5,0-2.7,1.2-2.7,2.7
			C37.5,17.3,38.7,18.5,40.2,18.5z"/>
		<path class="st0" d="M52,49.3c0,6.5-5.3,11.8-11.8,11.8c-6.5,0-11.9-5.3-11.8-11.9c0-6.5,5.3-11.8,11.9-11.8
			C46.8,37.5,52,42.8,52,49.3z M40.2,39.5c-5.4,0-9.8,4.3-9.8,9.7c0,5.4,4.4,9.8,9.8,9.8c5.4,0,9.8-4.4,9.8-9.8
			C50,43.9,45.6,39.5,40.2,39.5z"/>
		<path class="st0" d="M39.1,53.9c0-1.2,0-2.3,0-3.5c-0.4-0.1-0.8-0.1-1.1-0.2c-1.2-0.5-1.8-1.4-1.9-2.6c0-0.4,0-0.9,0-1.3
			c0-2.3,0.9-3.3,3.1-3.7c0.1-1.1,0.4-1.5,1.1-1.5c0.7,0,1,0.4,1.1,1.5c0.4,0.1,0.8,0.1,1.2,0.3c1.1,0.5,1.9,1.6,1.9,2.8
			c0,0.7-0.4,1.1-0.9,1.1c-0.6,0-1-0.3-1.1-1c-0.1-0.6-0.3-1.1-1-1.2c0,1.2,0,2.3,0,3.5c0,0,0,0,0.1,0.1c2.1,0.3,3,1.4,3,3.5
			c0,0.6,0,1.2-0.1,1.8c-0.3,1.4-1.3,2.2-3,2.5c-0.2,1.2-0.5,1.6-1.1,1.6c-0.6,0-0.9-0.5-1-1.6c-0.5-0.1-1.1-0.1-1.5-0.4
			c-1-0.6-1.5-1.5-1.5-2.6c0-0.7,0.3-1.1,0.9-1.2c0.6-0.1,1.1,0.3,1.2,1C38.2,53.4,38.3,53.8,39.1,53.9z M39.1,44.6
			c-0.6,0.1-1,0.4-1,1c0,0.6,0,1.2,0,1.8c0,0.6,0.3,0.9,1,0.9C39.1,47,39.1,45.8,39.1,44.6z M41.3,50.3c0,1.2,0,2.4,0,3.6
			c0.8-0.1,1-0.4,1-1.3C42.3,50.7,42.3,50.5,41.3,50.3z"/>
	</g>
</g>
</svg>
