<?xml version="1.0" encoding="utf-8"?>
<!-- Generator: Adobe Illustrator 26.1.0, SVG Export Plug-In . SVG Version: 6.00 Build 0)  -->
<svg version="1.1" id="Layer_1" xmlns="http://www.w3.org/2000/svg" xmlns:xlink="http://www.w3.org/1999/xlink" x="0px" y="0px"
	 viewBox="0 0 80 80" style="enable-background:new 0 0 80 80;" xml:space="preserve">
<style type="text/css">
	.st0{fill:#C59B27;}
</style>
<g>
	<g>
		<path class="st0" d="M2.6,37C3,36.2,2.9,35.4,3,34.7C5.2,19.5,16.7,6.9,31.7,3.8c14.1-2.9,26,1.2,35.8,11.7
			c0.2,0.2,0.3,0.4,0.5,0.5c0.2-0.2,0.1-0.4,0.1-0.6c0-2,0-4.1,0-6.1c0-1.2,1-1.8,1.8-1.3c0.5,0.3,0.6,0.8,0.6,1.4
			c0,2.3,0,4.6,0,6.9c0,0.8,0,1.7,0,2.5c0,0.9-0.4,1.4-1.3,1.4c-3.2,0-6.5,0-9.7,0c-0.8,0-1.3-0.5-1.3-1.2c0-0.7,0.5-1.2,1.4-1.2
			c1.9,0,3.8,0,5.6,0c0.2,0,0.5,0,0.8,0c-1.7-2.1-3.5-3.8-5.6-5.3C56.1,9,51,6.7,45.4,5.9C32.9,4,22.3,7.8,13.8,17.2
			c-4.6,5.1-7.3,11.2-8.3,18c-0.2,1.4-0.3,2.9-0.3,4.3c0,0.7-0.1,1.3-0.8,1.6C3.5,41.4,3,41,2.6,40.4C2.6,39.3,2.6,38.1,2.6,37z"/>
		<path class="st0" d="M36.8,77.1c-0.8-0.3-1.6-0.3-2.4-0.4c-9-1.4-16.6-5.5-22.6-12.3c-0.1-0.1-0.3-0.3-0.4-0.4
			c-0.2,0.1-0.1,0.3-0.1,0.5c0,2,0,3.9,0,5.9c0,0.3,0,0.5-0.1,0.8c-0.1,0.7-0.6,1-1.2,1c-0.6,0-1.1-0.5-1.2-1.2c0-0.5,0-1.1,0-1.6
			c0-2.6,0-5.3,0-7.9c0-1.3,0.4-1.7,1.7-1.7c3,0,6,0,9,0c0.2,0,0.5,0,0.7,0.1c0.6,0.1,1,0.6,1,1.2c0,0.6-0.3,1-0.9,1.2
			c-0.3,0.1-0.6,0.1-0.9,0.1c-2,0-3.9,0-6,0c1.3,1.6,2.7,3,4.2,4.3c4.8,4,10.3,6.6,16.5,7.6c10.5,1.6,20-1,28.1-7.8
			c5.5-4.7,9.2-10.6,11-17.6c0.7-2.7,1.1-5.4,1.1-8.2c0-0.3,0-0.6,0.1-0.9c0.3-0.6,0.7-0.8,1.3-0.7c0.6,0.1,1,0.6,1,1.3
			c0,1.6-0.1,3.3-0.3,4.9c-1.3,8.7-5.1,16.2-11.6,22.2c-5.3,5-11.6,8.1-18.8,9.3c-1.2,0.2-2.4,0.4-3.6,0.4c-0.1,0-0.2,0-0.2,0.1
			C40.5,77.1,38.7,77.1,36.8,77.1z"/>
		<path class="st0" d="M43.5,33.8c3.5,0,6.8,0,10.2,0c0.3,0,0.6,0,0.9,0c1,0.1,1.4,1.1,0.9,1.9c-0.4,0.6-0.8,1.1-1.2,1.7
			C47.4,47,40.5,56.6,33.6,66.2c-0.2,0.3-0.4,0.6-0.7,0.7c-0.5,0.2-0.9,0.3-1.4-0.1c-0.5-0.3-0.6-0.8-0.5-1.3c0.6-2.5,1.2-5,1.9-7.5
			c1-3.9,1.9-7.7,2.9-11.6c0-0.1,0-0.2,0.1-0.3c-0.9,0-1.7,0-2.5,0c-2.7,0-5.4,0-8.1,0c-0.6,0-1.2-0.1-1.5-0.7
			c-0.3-0.6,0-1.1,0.3-1.6c7.3-10.1,14.5-20.2,21.8-30.2c0.1-0.1,0.2-0.2,0.3-0.3c0.4-0.5,1-0.7,1.6-0.4c0.6,0.3,0.8,0.8,0.6,1.4
			c-0.5,2.1-1.1,4.3-1.6,6.4C45.7,25.1,44.6,29.4,43.5,33.8z M44.2,20.5c-0.1,0-0.1-0.1-0.2-0.1c-5.6,7.7-11.1,15.5-16.8,23.3
			c3.4,0,6.6,0,9.8,0c1.4,0,1.9,0.6,1.5,2c-0.9,3.5-1.8,7.1-2.6,10.6c-0.3,1.1-0.5,2.2-0.8,3.2c0.1,0,0.1,0,0.2,0.1
			c5.6-7.7,11.1-15.5,16.8-23.3c-0.4,0-0.6,0-0.9,0c-3,0-6,0-9,0c-1.4,0-1.8-0.6-1.5-1.9c0.7-2.9,1.5-5.9,2.2-8.8
			C43.4,23.8,43.8,22.2,44.2,20.5z"/>
	</g>
</g>
</svg>
