<?xml version="1.0" encoding="utf-8"?>
<!-- Generator: Adobe Illustrator 26.0.2, SVG Export Plug-In . SVG Version: 6.00 Build 0)  -->
<svg version="1.1" id="Layer_1" xmlns="http://www.w3.org/2000/svg" xmlns:xlink="http://www.w3.org/1999/xlink" x="0px" y="0px"
	 viewBox="0 0 80 80" style="enable-background:new 0 0 80 80;" xml:space="preserve">
<style type="text/css">
	.st0{fill:#E5E5E5;}
	.st1{fill:#BA942B;}
	.st2{fill:#5B5B5B;}
</style>
<rect x="0.1" y="-0.2" class="st0" width="80" height="80.4"/>
<polygon class="st1" points="30.7,43.3 40.1,67.6 18.1,60.3 "/>
<path class="st1" d="M48.2,43.4l-8.4,24.5l7.3,0.4l14.6-12.6l-6.3-7.5c0,0-4.8-1.5-4.8-3.4C50.9,42.8,48.2,43.4,48.2,43.4z"/>
<g>
	<g>
		<path class="st2" d="M29.5,44.4c-1.3-0.6-2.3-1-3.3-1.5c-1.5-0.7-2.8-1.5-3.9-2.7c-1.5-1.6-1.9-3.4-1.2-5.5
			c0.9-2.6,2.1-5.1,3.3-7.6c0.3-0.7,0.4-1.3,0.4-2.1c-0.3-5.2,0.7-10,4.1-14c3.9-4.5,9.1-5.8,14.8-4.6c5.8,1.3,9.2,5.2,11,10.6
			c0.9,2.6,1.1,5.3,0.8,8.1c-0.1,0.9,0.1,1.7,0.5,2.5c1.2,2.2,2.2,4.4,3,6.8c1,2.6,0.5,4.5-1.6,6.4c-1.5,1.3-3.3,2.2-5.2,3
			c-0.5,0.2-1.1,0.2-1.4,0.9c2.8,1.9,5.8,3.1,9.1,3.9c1.8,0.4,3.7,0.8,5.5,1.3c2.2,0.6,3.6,2,4.4,4.1c1.6,4,1.6,8.3,1.4,12.5
			c-0.1,1.7-1.6,2.7-3,3.6c-2.7,1.7-5.8,2.6-8.9,3.2C45.7,76,32.1,76,18.5,72.8c-2.3-0.5-4.5-1.4-6.6-2.6c-2.2-1.3-3.4-3-3.2-5.7
			C9,61.7,9,59.2,9.5,56.6c0.9-4.6,2.7-6.5,7.3-7.4c3.6-0.7,7.3-1.4,10.5-3.4C28,45.4,28.6,45,29.5,44.4z M58.2,55.9
			c-2.9-4.1-5.5-7.9-8.3-11.8c-3.3,7.8-6.4,15.3-9.6,22.9c0.1,0.1,0.3,0.2,0.4,0.3c0.1-0.2,0.2-0.4,0.4-0.6c2.4-3.2,4.9-6.5,7.3-9.7
			c0.5-0.7,1-1,1.9-1C52.8,55.9,55.3,55.9,58.2,55.9z M22,55.9c3,0,5.5,0,8.1,0c0.8,0,1.2,0.3,1.7,0.9c1.5,2.2,3.1,4.3,4.7,6.5
			c0.8,1.1,1.7,2.2,2.5,3.3c0.1-0.1,0.2-0.1,0.4-0.2c-2.6-7.5-6-14.7-9.1-22.3C27.5,48,24.9,51.8,22,55.9z"/>
	</g>
</g>
</svg>
