<?xml version="1.0" encoding="utf-8"?>
<!-- Generator: Adobe Illustrator 26.1.0, SVG Export Plug-In . SVG Version: 6.00 Build 0)  -->
<svg version="1.1" id="Layer_1" xmlns="http://www.w3.org/2000/svg" xmlns:xlink="http://www.w3.org/1999/xlink" x="0px" y="0px"
	 viewBox="0 0 80 80" style="enable-background:new 0 0 80 80;" xml:space="preserve">
<style type="text/css">
	.st0{fill:#C59B27;}
</style>
<g>
	<g>
		<path class="st0" d="M7.5,78.3c0-1,0-1.9,0-2.9c0-3.4-0.2-6.8,0.1-10.2c0.7-6.7,4.2-11.4,10.5-13.8c3.8-1.5,7.8-2.8,11.6-4.2
			c1.2-0.4,2.2-1.2,3.1-2.1c1-1.1,0.6-2.4,0.6-3.6c0-0.1-0.1-0.2-0.2-0.3c-3.9-3.9-6.1-8.6-7.5-13.8c-0.2-0.7-0.3-1.5-0.5-2.2
			c0,0-0.1-0.1-0.1-0.1c-2.8-0.1-3.1-2.4-2.5-4.9c0.1-0.3,0.2-0.6,0.5-0.9c0.8-0.8,1-1.8,1.3-2.8c1.2-4.2,3.4-7.7,6.9-10.4
			c0.6-0.5,1.2-1.1,1.5-1.8c0.6-1.1,1.4-1.7,2.6-2c3.6-1,7.2-1,10.8,0c1.1,0.3,2,0.9,2.5,2c0.3,0.7,0.8,1.3,1.4,1.8
			c3.8,2.9,6.2,6.8,7.3,11.4c0.1,0.5,0.3,0.9,0.6,1.3c1.1,1.2,1.3,2.7,1.1,4.2c-0.2,1.5-1.3,2.1-2.8,2.1c-0.5,2.4-1.1,4.7-2.1,7
			c-1.4,3.4-3.2,6.6-5.9,9.2c-0.1,0.1-0.2,0.2-0.2,0.3c0,1.2-0.4,2.4,0.5,3.4c0.9,1.1,2,1.9,3.4,2.4c3.9,1.4,7.9,2.8,11.8,4.2
			C70,54,74,59.7,74.1,66.5c0.1,3.8,0,7.6,0,11.4c0,0.1,0,0.2,0,0.4C51.9,78.3,29.8,78.3,7.5,78.3z M24.6,22.6c10.7,0,21.4,0,32.1,0
			c0.1-1.4,0-1.8-1-2.7c-0.3-0.3-0.5-0.6-0.6-1c-0.8-4.2-2.9-7.7-6.1-10.5c-1-0.8-1.8-1.7-2.5-2.9c-0.2-0.4-0.5-0.7-1-0.8
			c-3.2-0.8-6.4-0.9-9.6,0c-0.5,0.1-0.9,0.4-1.1,0.9c-0.4,0.9-1,1.6-1.8,2.2c-3.8,2.8-5.8,6.7-6.7,11.2c-0.1,0.4-0.3,0.7-0.6,1
			C24.9,20.7,24.4,21.5,24.6,22.6z M61.6,67.1c-14,0-27.9,0-41.8,0c0,2.9,0,5.8,0,8.7c0.9,0.1,41.2,0.1,41.8,0
			C61.6,72.9,61.6,70,61.6,67.1z M28.4,64.4c8.3,0,16.4,0,24.6,0c0-0.1,0.1-0.1,0.1-0.1c0-4.6,0-9.1,0-13.7c0-0.4-0.2-0.5-0.5-0.6
			c-1.1-0.3-2.1-0.7-3.2-1.2c-1,1-1.9,1.9-2.9,2.9c-0.3,0.3-0.6,0.4-1,0.4c-3.2,0-6.5,0-9.7,0c-0.4,0-0.7-0.1-1-0.4
			c-0.9-1-1.9-1.9-2.9-2.9c-1,0.5-2,0.9-3.1,1.3c-0.4,0.1-0.6,0.4-0.6,0.8c0,4,0,8.1,0,12.1C28.4,63.5,28.4,64,28.4,64.4z
			 M27.6,25.2c1,4.4,2.7,8.5,5.3,12.1c1.1,1.6,2.5,3,4.1,4c2.4,1.5,4.9,1.5,7.3,0.1c0.9-0.5,1.7-1.2,2.5-2c2.8-2.9,4.6-6.5,6-10.3
			c0.4-1.3,0.8-2.6,1-3.9C52.4,25.1,28.3,25.1,27.6,25.2z M71.5,75.8c0-3.3,0.1-6.5,0-9.7c-0.2-5.1-2.6-8.8-6.9-11.4
			c-1.3-0.8-2.7-1.3-4.2-1.7c0,3.9,0,7.7,0,11.6c1.2,0,2.4,0,3.7,0c0,3.8,0,7.5,0,11.2C66.6,75.8,69,75.8,71.5,75.8z M17.4,64.7
			c1.3,0,2.5,0,3.7,0c0-3.9,0-7.7,0-11.6c-0.9,0.3-1.8,0.6-2.6,0.9c-4.9,1.9-8.3,6.7-8.4,11.9c-0.1,3.2,0,6.4,0,9.6
			c0,0.1,0,0.2,0,0.4c2.5,0,4.9,0,7.3,0C17.4,72.2,17.4,68.5,17.4,64.7z M35.8,43.5c0,1.7-0.7,2.9-1.9,4c0.8,0.7,1.5,1.4,2.2,2.1
			c0.2,0.2,0.4,0.2,0.6,0.2c2.7,0,5.3,0,8,0c0.2,0,0.4,0.1,0.6-0.1c0.7-0.7,1.5-1.5,2.2-2.2c-1.1-1.1-1.9-2.4-1.9-4.1
			C42.4,45.3,39.2,45.2,35.8,43.5z M23.4,64.6c0.9,0,1.7,0,2.4,0c0-4.4,0-8.8,0-13.3c-0.7,0.2-1.2,0.5-1.9,0.6
			c-0.5,0.1-0.6,0.4-0.6,0.9c0,2.9,0,5.9,0,8.8C23.4,62.5,23.4,63.5,23.4,64.6z M58.1,64.6c0-4.1,0-8,0-12c0-0.2,0-0.5-0.3-0.6
			c-0.7-0.2-1.4-0.5-2.2-0.7c0,4.5,0,8.9,0,13.3C56.4,64.6,57.2,64.6,58.1,64.6z"/>
		<path class="st0" d="M27.1,72c-1.6,0-3.2,0-4.9,0c0-0.8,0-1.6,0-2.4c1.6,0,3.2,0,4.9,0C27.1,70.3,27.1,71.1,27.1,72z"/>
		<path class="st0" d="M54.4,72c0-0.8,0-1.6,0-2.4c1.6,0,3.2,0,4.9,0c0,0.8,0,1.6,0,2.4C57.7,72,56.1,72,54.4,72z"/>
	</g>
</g>
</svg>
