<?xml version="1.0" encoding="utf-8"?>
<!-- Generator: Adobe Illustrator 26.0.2, SVG Export Plug-In . SVG Version: 6.00 Build 0)  -->
<svg version="1.1" id="Layer_1" xmlns="http://www.w3.org/2000/svg" xmlns:xlink="http://www.w3.org/1999/xlink" x="0px" y="0px"
	 viewBox="0 0 80 80" style="enable-background:new 0 0 80 80;" xml:space="preserve">
<style type="text/css">
	.st0{fill:#E5E5E5;}
	.st1{display:none;fill:#BA942B;}
	.st2{display:none;}
	.st3{display:inline;}
	.st4{fill:#243467;}
	.st5{fill:#BA942B;}
	.st6{fill:#5B5B5B;}
</style>
<rect x="0.1" y="-0.2" class="st0" width="80" height="80.4"/>
<polygon class="st1" points="30.7,43.3 40.1,67.6 18.1,60.3 "/>
<path class="st1" d="M48.2,43.4l-8.4,24.5l7.3,0.4l14.6-12.6l-6.3-7.5c0,0-4.8-1.5-4.8-3.4C50.9,42.8,48.2,43.4,48.2,43.4z"/>
<g class="st2">
	<g class="st3">
		<path class="st4" d="M29.5,44.4c-1.3-0.6-2.3-1-3.3-1.5c-1.5-0.7-2.8-1.5-3.9-2.7c-1.5-1.6-1.9-3.4-1.2-5.5
			c0.9-2.6,2.1-5.1,3.3-7.6c0.3-0.7,0.4-1.3,0.4-2.1c-0.3-5.2,0.7-10,4.1-14c3.9-4.5,9.1-5.8,14.8-4.6c5.8,1.3,9.2,5.2,11,10.6
			c0.9,2.6,1.1,5.3,0.8,8.1c-0.1,0.9,0.1,1.7,0.5,2.5c1.2,2.2,2.2,4.4,3,6.8c1,2.6,0.5,4.5-1.6,6.4c-1.5,1.3-3.3,2.2-5.2,3
			c-0.5,0.2-1.1,0.2-1.4,0.9c2.8,1.9,5.8,3.1,9.1,3.9c1.8,0.4,3.7,0.8,5.5,1.3c2.2,0.6,3.6,2,4.4,4.1c1.6,4,1.6,8.3,1.4,12.5
			c-0.1,1.7-1.6,2.7-3,3.6c-2.7,1.7-5.8,2.6-8.9,3.2c-13.6,2.7-27.2,2.7-40.8-0.5c-2.3-0.5-4.5-1.4-6.6-2.6c-2.2-1.3-3.4-3-3.2-5.7
			C9,61.7,9,59.2,9.5,56.6c0.9-4.6,2.7-6.5,7.3-7.4c3.6-0.7,7.3-1.4,10.5-3.4C28,45.4,28.6,45,29.5,44.4z M58.2,55.9
			c-2.9-4.1-5.5-7.9-8.3-11.8c-3.3,7.8-6.4,15.3-9.6,22.9c0.1,0.1,0.3,0.2,0.4,0.3c0.1-0.2,0.2-0.4,0.4-0.6c2.4-3.2,4.9-6.5,7.3-9.7
			c0.5-0.7,1-1,1.9-1C52.8,55.9,55.3,55.9,58.2,55.9z M22,55.9c3,0,5.5,0,8.1,0c0.8,0,1.2,0.3,1.7,0.9c1.5,2.2,3.1,4.3,4.7,6.5
			c0.8,1.1,1.7,2.2,2.5,3.3c0.1-0.1,0.2-0.1,0.4-0.2c-2.6-7.5-6-14.7-9.1-22.3C27.5,48,24.9,51.8,22,55.9z"/>
	</g>
</g>
<polygon class="st5" points="30.1,44.6 32.4,43.6 40.1,46.7 47.8,44 50,44.8 43.4,61.4 33.1,59.3 "/>
<g>
	<g>
		<g>
			<path class="st6" d="M30.1,44.5c1.1,2.5,2.2,4.7,3.2,6.9c1,2.2,2.1,4.4,3.1,6.7c1.5-2.6,2-5.1,0.4-7.8c-0.3-0.5-0.7-1.1-0.3-1.8
				c0.3-0.5,0.7-0.8,1.3-0.8c1.4,0,2.8-0.1,4.3,0c1.3,0.1,1.7,1,1.3,2.1c-0.1,0.2-0.1,0.4-0.2,0.5c-1.7,2.6-1,5.1,0.4,7.7
				c2.1-4.5,4.2-9,6.3-13.4c0.2,0.1,0.4,0,0.5,0.1c3.4,2.6,7.4,3.9,11.6,4.6c5.9,1,7.9,3.3,8.5,9.4c0.2,2,0.2,4,0.4,6
				c0.1,2.1-0.7,3.6-2.4,4.7c-2.7,1.8-5.7,2.8-8.8,3.4c-14,2.9-28,2.9-41.9-0.7c-2.3-0.6-4.5-1.5-6.5-3c-1.4-1.1-2.1-2.4-2-4.2
				c0.1-2.9,0.2-5.8,0.7-8.6c0.8-3.8,2.9-6.2,6.9-6.8C21.6,49,26.2,47.8,30.1,44.5z"/>
			<path class="st6" d="M40.8,5.7c3.6-0.3,7,1.6,10.2,4c2.1,1.6,2.8,3.9,3.3,6.4c0.2,1.1,0.3,2.2,0.4,3.3c0.2,1.3,0.2,2.5,0.9,3.8
				c1.1,1.9,0.2,6.3-1.4,7.9c-0.6,0.5-0.9,1.1-1.2,1.8c-1.4,3.1-3.1,6-5.7,8.3c-4.8,4.3-10.1,4.2-14.8-0.2c-2.5-2.3-4.2-5.1-5.5-8.2
				c-0.2-0.6-0.6-1.1-1.1-1.5c-2.1-1.7-2.6-6.6-1.1-8.8c0.3-0.5,0.3-0.9,0.3-1.4c0.1-1.9,0.3-3.8,0.7-5.7c1.2-5.6,5.5-7.7,10.3-9.3
				C37.5,5.7,38.8,5.7,40.8,5.7z"/>
		</g>
	</g>
	<path class="st6" d="M35.2,47.6l9.7,0c0.1,0,0.2,0.2,0.1,0.3L40.1,54c-0.1,0.1-0.2,0.1-0.2,0l-4.8-6.1C35,47.8,35.1,47.6,35.2,47.6
		z"/>
</g>
<path class="st5" d="M34.9,47.7l3.5,4.5c0,0,0.2,1.1,0,1.7s-1.9,4.2-1.9,4.2"/>
<path class="st5" d="M45.1,48l-3.5,4.5c0,0-0.2,1.1,0,1.7c0.2,0.6,1.9,4.2,1.9,4.2"/>
</svg>
